<svg width="45" height="45" viewBox="0 0 45 45" xmlns="http://www.w3.org/2000/svg"><title>Group</title><g fill="none" fill-rule="evenodd"><circle fill="#D0C7D4" cx="22.5" cy="22.5" r="22.5"/><rect fill="#000" x="8" y="13" width="30" height="20" rx="4"/><path fill="#D0C7D4" d="M4 24h34v1H4z"/><path fill="#D0C7D4" d="M27 12h1v21h-1z"/><path d="M33.621 23.121c-1.721 1.722-4.056 2.308-5.303 1.061-1.247-1.247-.66-3.582 1.06-5.303 1.722-1.722 4.057-2.308 5.304-1.061 1.247 1.247.66 3.582-1.06 5.303zm-1.018-1.018c1.252-1.252 1.634-2.772 1.1-3.306-.534-.534-2.054-.152-3.306 1.1-1.252 1.252-1.634 2.772-1.1 3.306.534.534 2.054.152 3.306-1.1z" fill="#D0C7D4" fill-rule="nonzero"/><path d="M22.732 23.268c-1.721-1.722-2.464-3.9-1.414-4.95 1.05-1.05 3.228-.307 4.95 1.414 1.721 1.722 2.464 3.9 1.414 4.95-1.05 1.05-3.228.307-4.95-1.414zm.65-1.342c1.252 1.252 2.67 1.736 3.08 1.326.41-.41-.074-1.828-1.326-3.08-1.253-1.253-2.67-1.736-3.08-1.326-.41.41.073 1.827 1.326 3.08z" fill="#D0C7D4" fill-rule="nonzero"/><rect fill="#D0C7D4" transform="rotate(46 30 26.5)" x="27" y="26" width="6" height="1" rx=".5"/><rect fill="#D0C7D4" transform="scale(-1 1) rotate(46 0 -34.752)" x="23" y="26" width="6" height="1" rx=".5"/></g></svg>