<svg id="Layer_1" xmlns="http://www.w3.org/2000/svg" viewBox="0 0 119.8 17.2"><style>.st0{fill:#fff}</style><title>logo_text</title><g id="LabZero"><path id="Fill-1" class="st0" d="M0 16.9V.3h1.6v15.1h7.8v1.5H0"/><path id="Fill-2" class="st0" d="M20.6 1.7l-2.7 8.5h5.5l-2.8-8.5zm4.9 15.2l-1.7-5.1h-6.5l-1.7 5.1H14L19.5.3h2.1l5.5 16.6h-1.6z"/><path id="Fill-3" class="st0" d="M38.6 9.1h-4.3v6.4H39c2.5 0 3.9-1.1 3.9-3.2 0-2.3-1.7-3.2-4.3-3.2zm.2-7.3h-4.6v5.9h4.4c2.4 0 3.9-.9 3.9-3 0-1.8-1.2-2.9-3.7-2.9zm.2 15.1h-6.3V.3h6c3.9 0 5.4 2 5.4 4.2.1 1.8-1.2 3.5-3 3.8 2 .3 3.4 2.1 3.4 4.1-.1 2.3-1.5 4.4-5.5 4.5z"/><path id="Fill-4" class="st0" d="M50.2 16.9v-3.1l8-9.8h-7.4V.3h13v3.2L56 13.3h7.8v3.6H50.2"/><path id="Fill-5" class="st0" d="M69.4 16.9V.3h11.5V4h-7.2v2.7h5.2v3.5h-5.2v3.1h7.6v3.6H69.4"/><path id="Fill-6" class="st0" d="M91.1 7.7H93c1.8 0 2.6-.5 2.6-1.9s-.8-1.9-2.6-1.9h-1.9v3.8zm-4.3 9.2V.3h6.3c4.2 0 6.7 1.4 6.7 5.4 0 2.6-1.1 4.1-3.2 4.8l3.4 6.3h-4.6L92.3 11h-1.2v5.8h-4.3z"/><path id="Fill-7" class="st0" d="M115.4 8.6c0-3-1.3-4.9-3.6-4.9s-3.6 1.9-3.6 4.9 1.3 5 3.6 5 3.6-2 3.6-5zm-11.5 0c0-6.1 4.1-8.6 8-8.6s8 2.5 8 8.6-4.1 8.6-8 8.6-8-2.5-8-8.6z"/></g></svg>