<svg id="Layer_1" xmlns="http://www.w3.org/2000/svg" viewBox="0 0 125.1 125.1"><style>.st0{fill:#fff}</style><g id="Layer_2"><path transform="rotate(-18.522 62.538 62.644)" class="st0" d="M53.7 54.1h17.6v17H53.7z"/><path transform="rotate(-18.522 62.538 62.644)" class="st0" d="M53.7 54.1h17.6v17H53.7z"/><path class="st0" d="M119.8 45.3c-12.9-43-31.5-53-74.5-40.1s-53 31.5-40.1 74.5 31.5 53 74.5 40.1 53-31.5 40.1-74.5zM98.1 73.2L90 75.9l2.8 8.4c1.1 3.4-.7 7.1-4.1 8.2-.7.2-1.5.4-2.2.3-2.6-.1-5.1-1.8-6-4.4L77.7 80 61 85.6l2.8 8.4c1.1 3.4-.7 7.1-4.1 8.2-.7.2-1.5.4-2.2.3-2.6-.1-5.1-1.8-6-4.4l-2.8-8.4-8.1 2.7c-.7.2-1.5.4-2.2.3-2.6-.1-5.1-1.8-6-4.4-1.1-3.4.7-7.1 4.1-8.2l8.1-2.7-5.4-16.1-8.1 2.7c-.7.2-1.5.4-2.2.3-2.6-.1-5.1-1.8-6-4.4-1.1-3.4.7-7.1 4.1-8.2l8.1-2.7-2.8-8.4c-1.1-3.4.7-7.1 4.1-8.2s7.1.7 8.2 4.1l2.8 8.4 16.7-5.6-2.8-8.4c-1.1-3.4.7-7.1 4.1-8.2 3.4-1.1 7.1.7 8.2 4.1l2.8 8.4 8.1-2.7c3.4-1.1 7.1.7 8.2 4.1 1.1 3.4-.7 7.1-4.1 8.2l-8.1 2.7 5.4 16.1 8.1-2.7c3.4-1.1 7.1.7 8.2 4.1 1.1 3.4-.7 7.1-4.1 8.2z"/></g></svg>