<?xml version="1.0" encoding="UTF-8" standalone="no"?>
<svg width="175px" height="67px" viewBox="0 0 175 67" version="1.1" xmlns="http://www.w3.org/2000/svg" xmlns:xlink="http://www.w3.org/1999/xlink">
    <!-- Generator: Sketch 3.8.3 (29802) - http://www.bohemiancoding.com/sketch -->
    <title>Desktop Lab Zero Logo</title>
    <desc>Created with Sketch.</desc>
    <defs></defs>
    <g id="Page-1" stroke="none" stroke-width="1" fill="none" fill-rule="evenodd">
        <g id="Desktop-Lab-Zero-Logo" fill="#414042">
            <path d="M22.3416365,25.453504 L19.9326236,18.8340139 L0.197396199,9.18311206e-16 C0.0187903217,0.0207009508 -0.0182788228,0.0982091619 0.00723630262,0.168977529 L15.0163885,41.4038273 L23.7103064,38.2394703 L17.8028327,49.0617348 L24.2981171,66.9083615 C24.3250765,66.9810555 24.4030661,67.0176432 24.4738345,66.9916467 C24.5027195,66.9810555 24.9615104,66.1664972 24.9615104,66.1664972 L35.0809054,47.6083355 C35.0616487,47.4297296 34.987029,47.3941047 34.9177049,47.4176942 L30.7125233,48.9471574 L41.390844,29.3664651 L37.9049002,19.7881833 L22.3416365,25.453504 Z" id="Fill-9"></path>
            <g id="LabZero" transform="translate(55.000000, 25.000000)">
                <polyline id="Fill-1" points="0 16.8883314 0 0.314159283 1.55584195 0.314159283 1.55584195 15.3877517 9.37947051 15.3877517 9.37947051 16.8883314 0 16.8883314"></polyline>
                <path d="M20.5771499,1.72515213 L20.5327311,1.72515213 L17.7935728,10.2359026 L23.3382216,10.2359026 L20.5771499,1.72515213 L20.5771499,1.72515213 Z M25.507635,16.8883314 L23.8203134,11.7370876 L17.2895676,11.7370876 L15.6241593,16.8883314 L14.0683174,16.8883314 L19.5466341,0.268760542 L21.6064812,0.268760542 L27.0853902,16.8883314 L25.507635,16.8883314 L25.507635,16.8883314 Z" id="Fill-2"></path>
                <path d="M38.5679421,9.07127362 L34.2504363,9.07127362 L34.2504363,15.4325451 L39.0275285,15.4325451 C41.5262332,15.4325451 42.9286822,14.3133148 42.9286822,12.252212 C42.9286822,10.0125408 41.2194474,9.07127362 38.5679421,9.07127362 L38.5679421,9.07127362 Z M38.8528146,1.76994555 L34.2504363,1.76994555 L34.2504363,7.66028077 L38.6330897,7.66028077 C41.0441413,7.66028077 42.5123302,6.72022419 42.5123302,4.65912138 C42.5123302,2.91217786 41.2851872,1.76994555 38.8528146,1.76994555 L38.8528146,1.76994555 Z M39.0056152,16.8883314 L32.6945943,16.8883314 L32.6945943,0.314159283 L38.6988295,0.314159283 C42.5999832,0.314159283 44.0900854,2.2620679 44.0900854,4.50173908 C44.0900854,6.45085833 43.0382486,7.77286965 41.1317944,8.31039073 L41.1317944,8.35518416 C43.4326874,8.91510195 44.5064375,10.437473 44.5064375,12.4313857 C44.5064375,14.7830405 43.0163353,16.8883314 39.0056152,16.8883314 L39.0056152,16.8883314 Z" id="Fill-3"></path>
                <polyline id="Fill-4" points="50.2465289 16.8883314 50.2465289 13.8199819 58.1797238 4.03201345 50.7724473 4.03201345 50.7724473 0.314159283 63.7462859 0.314159283 63.7462859 3.49388705 56.0322236 13.2824608 63.7462859 13.2824608 63.7462859 16.8883314 50.2465289 16.8883314"></polyline>
                <polyline id="Fill-5" points="69.3548977 16.8883314 69.3548977 0.314159283 80.9256949 0.314159283 80.9256949 4.03201345 73.7375511 4.03201345 73.7375511 6.72022419 78.8658478 6.72022419 78.8658478 10.2141112 73.7375511 10.2141112 73.7375511 13.2824608 81.2982205 13.2824608 81.2982205 16.8883314 69.3548977 16.8883314"></polyline>
                <path d="M91.1141796,7.72807623 L92.9993128,7.72807623 C94.7962007,7.72807623 95.5850783,7.21234654 95.5850783,5.8237504 C95.5850783,4.43515426 94.7962007,3.9424266 92.9993128,3.9424266 L91.1141796,3.9424266 L91.1141796,7.72807623 L91.1141796,7.72807623 Z M86.8191792,16.8883314 L86.8191792,0.314159283 L93.1527056,0.314159283 C97.3168186,0.314159283 99.8587576,1.72515213 99.8587576,5.71237216 C99.8587576,8.31039073 98.7844152,9.81097043 96.6594206,10.5500619 L100.099804,16.8883314 L95.4535987,16.8883314 L92.3194092,11.1323764 L91.1141796,11.1323764 L91.1141796,16.8883314 L86.8191792,16.8883314 L86.8191792,16.8883314 Z" id="Fill-6"></path>
                <path d="M115.438498,8.60094267 C115.438498,5.55498986 114.145615,3.69545746 111.866043,3.69545746 C109.565743,3.69545746 108.272268,5.55498986 108.272268,8.60094267 C108.272268,11.6475008 109.565743,13.6184114 111.866043,13.6184114 C114.145615,13.6184114 115.438498,11.6475008 115.438498,8.60094267 L115.438498,8.60094267 Z M103.889614,8.60094267 C103.889614,2.53143376 107.943569,0 111.866043,0 C115.767197,0 119.821744,2.53143376 119.821744,8.60094267 C119.821744,14.6710569 115.767197,17.2018853 111.866043,17.2018853 C107.943569,17.2018853 103.889614,14.6710569 103.889614,8.60094267 L103.889614,8.60094267 Z" id="Fill-7"></path>
            </g>
        </g>
    </g>
</svg>